<svg width="400" height="400" viewBox="0 0 400 400" xmlns="http://www.w3.org/2000/svg">
  <rect width="400" height="400" fill="#F5F5F5"/>
  <ellipse cx="200" cy="320" rx="120" ry="20" fill="#8B4513"/>
  <ellipse cx="200" cy="300" rx="110" ry="18" fill="#A0522D"/>
  <path d="M90 300 L90 180 Q90 160 110 160 L290 160 Q310 160 310 180 L310 300" stroke="#DEB887" stroke-width="4" fill="none"/>
  <path d="M95 295 L95 185 Q95 170 110 170 L290 170 Q305 170 305 185 L305 295" stroke="#D2B48C" stroke-width="2" fill="none"/>
  
  <!-- Weaving pattern -->
  <g opacity="0.6">
    <path d="M110 170 L110 300" stroke="#CD853F" stroke-width="1"/>
    <path d="M130 170 L130 300" stroke="#8B4513" stroke-width="1"/>
    <path d="M150 170 L150 300" stroke="#CD853F" stroke-width="1"/>
    <path d="M170 170 L170 300" stroke="#A0522D" stroke-width="1"/>
    <path d="M190 170 L190 300" stroke="#CD853F" stroke-width="1"/>
    <path d="M210 170 L210 300" stroke="#8B4513" stroke-width="1"/>
    <path d="M230 170 L230 300" stroke="#CD853F" stroke-width="1"/>
    <path d="M250 170 L250 300" stroke="#A0522D" stroke-width="1"/>
    <path d="M270 170 L270 300" stroke="#CD853F" stroke-width="1"/>
    <path d="M290 170 L290 300" stroke="#8B4513" stroke-width="1"/>
  </g>
  
  <g opacity="0.4">
    <path d="M110 180 L290 180" stroke="#CD853F" stroke-width="1"/>
    <path d="M110 200 L290 200" stroke="#A0522D" stroke-width="1"/>
    <path d="M110 220 L290 220" stroke="#CD853F" stroke-width="1"/>
    <path d="M110 240 L290 240" stroke="#8B4513" stroke-width="1"/>
    <path d="M110 260 L290 260" stroke="#CD853F" stroke-width="1"/>
    <path d="M110 280 L290 280" stroke="#A0522D" stroke-width="1"/>
  </g>
  
  <text x="200" y="380" text-anchor="middle" font-family="serif" font-size="16" fill="#666">Wicker Storage Basket</text>
</svg>