<svg width="1200" height="800" viewBox="0 0 1200 800" xmlns="http://www.w3.org/2000/svg">
  <defs>
    <linearGradient id="bgGradient" x1="0%" y1="0%" x2="100%" y2="100%">
      <stop offset="0%" style="stop-color:#F5F5F5;stop-opacity:1" />
      <stop offset="100%" style="stop-color:#FAFAFA;stop-opacity:1" />
    </linearGradient>
  </defs>
  
  <rect width="1200" height="800" fill="url(#bgGradient)"/>
  
  <!-- Main craft scene -->
  <g transform="translate(200, 150)">
    <!-- Large pottery wheel -->
    <ellipse cx="300" cy="400" rx="100" ry="20" fill="#8B4513"/>
    <circle cx="300" cy="380" r="80" fill="#DEB887" stroke="#A0522D" stroke-width="3"/>
    <circle cx="300" cy="320" r="40" fill="#F5DEB3" stroke="#DEB887" stroke-width="2"/>
    
    <!-- Weaving loom -->
    <rect x="100" y="200" width="150" height="300" fill="#CD853F" opacity="0.8"/>
    <g opacity="0.6">
      <path d="M120 220 L120 480" stroke="#8B4513" stroke-width="2"/>
      <path d="M140 220 L140 480" stroke="#A0522D" stroke-width="2"/>
      <path d="M160 220 L160 480" stroke="#8B4513" stroke-width="2"/>
      <path d="M180 220 L180 480" stroke="#CD853F" stroke-width="2"/>
      <path d="M200 220 L200 480" stroke="#8B4513" stroke-width="2"/>
      <path d="M220 220 L220 480" stroke="#A0522D" stroke-width="2"/>
    </g>
    
    <!-- Hanging baskets -->
    <g transform="translate(500, 100)">
      <ellipse cx="50" cy="150" rx="40" ry="8" fill="#DEB887"/>
      <path d="M10 150 Q50 100 90 150" stroke="#8B4513" stroke-width="3" fill="none"/>
      <path d="M50 50 L50 100" stroke="#654321" stroke-width="2"/>
      
      <ellipse cx="150" cy="200" rx="35" ry="7" fill="#CD853F"/>
      <path d="M115 200 Q150 160 185 200" stroke="#A0522D" stroke-width="3" fill="none"/>
      <path d="M150 80 L150 160" stroke="#654321" stroke-width="2"/>
    </g>
    
    <!-- Decorative elements -->
    <circle cx="600" cy="300" r="15" fill="#F37E3A" opacity="0.7"/>
    <circle cx="650" cy="350" r="12" fill="#288EC2" opacity="0.7"/>
    <circle cx="700" cy="280" r="18" fill="#6EBD49" opacity="0.7"/>
    
    <!-- Craft tools -->
    <g transform="translate(50, 350)">
      <rect x="0" y="0" width="30" height="5" fill="#8B4513" transform="rotate(15)"/>
      <rect x="20" y="15" width="25" height="4" fill="#A0522D" transform="rotate(45)"/>
      <circle cx="40" cy="40" r="8" fill="#CD853F"/>
    </g>
  </g>
  
  <!-- Decorative border elements -->
  <g opacity="0.3">
    <rect x="50" y="50" width="100" height="3" fill="#F37E3A"/>
    <rect x="1050" y="750" width="100" height="3" fill="#288EC2"/>
    <circle cx="100" cy="700" r="20" fill="#6EBD49"/>
    <circle cx="1100" cy="100" r="25" fill="#F37E3A"/>
  </g>
</svg>